<?xml version="1.0" standalone="no"?><!DOCTYPE svg PUBLIC "-//W3C//DTD SVG 1.1//EN" "http://www.w3.org/Graphics/SVG/1.1/DTD/svg11.dtd"><svg t="1689563843241" class="icon" viewBox="0 0 1089 1024" version="1.1" xmlns="http://www.w3.org/2000/svg" p-id="2181" xmlns:xlink="http://www.w3.org/1999/xlink" width="212.6953125" height="200"><path d="M616.862002 374.105038h-131.947115a98.960337 98.960337 0 0 1-98.960337-98.960336V98.995303A98.960337 98.960337 0 0 1 487.553829 0.034966h131.947115a98.960337 98.960337 0 0 1 98.960337 98.960337v176.149399a98.960337 98.960337 0 0 1-101.599279 98.960336zM487.553829 66.008524a32.986779 32.986779 0 0 0-32.986779 32.986779v176.149399a32.986779 32.986779 0 0 0 32.986779 32.986779h131.947115a32.986779 32.986779 0 0 0 32.986779-32.986779V98.995303a32.986779 32.986779 0 0 0-32.986779-32.986779zM608.945175 1023.944582H480.296738A98.960337 98.960337 0 0 1 381.336401 923.664774v-174.829928a98.960337 98.960337 0 0 1 98.960337-98.960336h131.947115a98.960337 98.960337 0 0 1 98.960337 98.960336V923.664774a98.960337 98.960337 0 0 1-102.259015 100.279808z m-128.648437-308.096514a32.986779 32.986779 0 0 0-32.986779 32.986778V923.664774a32.986779 32.986779 0 0 0 32.986779 32.986779h131.947115a32.986779 32.986779 0 0 0 32.986779-32.986779v-174.829928a32.986779 32.986779 0 0 0-32.986779-32.986778zM989.612603 1023.944582h-131.947115a98.960337 98.960337 0 0 1-98.960337-98.960336v-176.1494a98.960337 98.960337 0 0 1 98.960337-98.960336h131.947115a98.960337 98.960337 0 0 1 98.960337 98.960336V923.664774a98.960337 98.960337 0 0 1-98.960337 100.279808z m-131.947115-308.096514a32.986779 32.986779 0 0 0-32.986779 32.986778V923.664774a33.646514 33.646514 0 0 0 32.986779 32.986779h131.947115a32.986779 32.986779 0 0 0 32.986779-32.986779v-174.829928a32.986779 32.986779 0 0 0-32.986779-32.986778zM228.277747 1023.944582h-131.947116A98.960337 98.960337 0 0 1 0.009237 923.664774v-174.829928a98.960337 98.960337 0 0 1 98.960337-98.960336h131.947115a98.960337 98.960337 0 0 1 98.960337 98.960336V923.664774a98.960337 98.960337 0 0 1-101.599279 100.279808z m-131.947116-308.096514a32.986779 32.986779 0 0 0-32.986778 32.986778V923.664774a32.986779 32.986779 0 0 0 32.986778 32.986779h131.947116A33.646514 33.646514 0 0 0 263.903468 923.664774v-174.829928a32.986779 32.986779 0 0 0-32.986779-32.986778z" fill="#FC6D26" p-id="2182"></path><path d="M544.950824 715.848068a32.986779 32.986779 0 0 1-32.986779-32.986779V358.93112a32.986779 32.986779 0 0 1 32.986779-32.986779 33.646514 33.646514 0 0 1 32.986779 32.986779v323.930169a32.986779 32.986779 0 0 1-32.986779 32.986779z" fill="#FC6D26" p-id="2183"></path><path d="M923.639046 554.212851H163.62366A32.986779 32.986779 0 0 1 131.956353 521.226072a32.986779 32.986779 0 0 1 32.986778-32.986779H923.639046a32.986779 32.986779 0 0 1 32.986778 32.986779 32.986779 32.986779 0 0 1-32.986778 32.986779z" fill="#FC6D26" p-id="2184"></path><path d="M163.62366 715.848068a32.986779 32.986779 0 0 1-32.986779-32.986779V521.226072a32.986779 32.986779 0 0 1 65.973558 0v161.635217a32.986779 32.986779 0 0 1-32.986779 32.986779zM923.639046 701.333885a33.646514 33.646514 0 0 1-32.986779-32.986779V533.101313a33.646514 33.646514 0 0 1 32.986779-32.986779 32.986779 32.986779 0 0 1 32.986778 32.986779v135.245793a32.986779 32.986779 0 0 1-32.986778 32.986779z" fill="#FC6D26" p-id="2185"></path></svg>